<svg width="32" height="32" viewBox="0 0 32 32" fill="none" xmlns="http://www.w3.org/2000/svg">
<path d="M18.7534 29L32.0009 15.9988H25.534L18.7534 22.6534C16.9676 24.4059 16.9676 27.2475 18.7534 29Z" fill="url(#paint0_linear_4545_17816)"/>
<path d="M18.7534 3C16.9676 4.75253 16.9676 7.59412 18.7534 9.34664L25.534 16.0012C27.3197 17.7538 27.3197 20.5954 25.534 22.3479L32.0009 16.0012L18.7534 3Z" fill="url(#paint1_linear_4545_17816)"/>
<path d="M13.2475 3L0 16.0012H6.46687L13.2475 9.34664C15.0332 7.59412 15.0332 4.75252 13.2475 3Z" fill="url(#paint2_linear_4545_17816)"/>
<path d="M13.2475 28.9999C15.0332 27.2474 15.0332 24.4058 13.2475 22.6533L6.46687 16.0012C4.68115 14.2487 4.68115 11.4071 6.46687 9.65454L0 16.0012L13.2475 28.9999Z" fill="url(#paint3_linear_4545_17816)"/>
<path d="M16.0003 19.2409L12.6992 16.0012L16.0003 12.759L19.3013 16.0012L16.0003 19.2409Z" fill="url(#paint4_linear_4545_17816)"/>
<defs>
<linearGradient id="paint0_linear_4545_17816" x1="17.753" y1="28.1411" x2="26.3085" y2="17.8568" gradientUnits="userSpaceOnUse">
<stop offset="0.3661" stop-color="#6680FE"/>
<stop offset="0.4727" stop-color="#5D81FA"/>
<stop offset="0.65" stop-color="#4383F1"/>
<stop offset="0.8747" stop-color="#1A86E2"/>
<stop offset="1" stop-color="#0088D8"/>
</linearGradient>
<linearGradient id="paint1_linear_4545_17816" x1="24.3888" y1="21.5231" x2="24.8913" y2="4.31819" gradientUnits="userSpaceOnUse">
<stop stop-color="#BE9DFF"/>
<stop offset="1" stop-color="#3B71FE"/>
</linearGradient>
<linearGradient id="paint2_linear_4545_17816" x1="13.604" y1="4.60278" x2="5.04847" y2="14.8871" gradientUnits="userSpaceOnUse">
<stop offset="0.3661" stop-color="#6680FE"/>
<stop offset="0.4727" stop-color="#5D81FA"/>
<stop offset="0.65" stop-color="#4383F1"/>
<stop offset="0.8747" stop-color="#1A86E2"/>
<stop offset="1" stop-color="#0088D8"/>
</linearGradient>
<linearGradient id="paint3_linear_4545_17816" x1="7.61037" y1="10.4772" x2="7.10786" y2="27.6821" gradientUnits="userSpaceOnUse">
<stop stop-color="#BE9DFF"/>
<stop offset="1" stop-color="#3B71FE"/>
</linearGradient>
<linearGradient id="paint4_linear_4545_17816" x1="16.0314" y1="12.8742" x2="15.9686" y2="19.2344" gradientUnits="userSpaceOnUse">
<stop stop-color="#F0AFFE"/>
<stop offset="0.6469" stop-color="#8A70FF"/>
<stop offset="1" stop-color="#2732F0"/>
</linearGradient>
</defs>
</svg>
